<svg xmlns="http://www.w3.org/2000/svg" viewBox="0 0 213.75 32"><defs><style>.d{fill:#f4f4f4;}</style></defs><g id="a"/><g id="b"><g id="c"><path class="d" d="M0,32H16c5.92,0,11.09-3.22,13.86-8H8c-4.42,0-8,3.58-8,8Zm32-16h0ZM16,0H0C0,4.42,3.58,8,8,8h10.14c5.92,0,11.09,3.22,13.86,8h0C32,7.16,24.84,0,16,0ZM197.33,.46V24.02h16.42v7.51h-25.6V.46h9.18Zm-25.46,0V7.88h-18.13v4.27h15.91v7.05h-15.91v4.91h18.41v7.42h-27.55V.46h27.27Zm-58.21-.46c8.67,0,14.47,3.29,14.47,9.92v1.02h-8.9v-1.02c0-2.09-2.13-3.01-5.66-3.01h-.83c-3.62,0-5.61,.79-5.61,2.09v.37c0,1.72,1.44,2.23,9.09,3.43,8.67,1.53,12.38,4.22,12.38,9.46v.46c0,5.43-4.87,9.28-14.84,9.28h-.93c-10.06,0-15.17-3.89-15.17-10.57v-.84h8.9v.84c0,2.87,2.32,3.62,6.35,3.62h.84c3.71,0,5.84-.7,5.84-2.18v-.37c0-1.53-2.04-2.27-9.6-3.48-7.93-1.2-11.83-3.85-11.83-9.09v-.65c0-6.03,5.52-9.27,14.56-9.27h.93ZM57.27,13.36v5.29c0,3.43,2.41,5.38,7,5.38h1.12c4.54,0,7-1.95,7-5.38v-5.29c0-3.43-2.46-5.38-7-5.38h-1.12c-4.59,0-7,1.95-7,5.38ZM65.67,0c9.14,0,16,4.64,16,13.08v5.99c0,8.4-6.86,12.94-16,12.94h-1.39c-9.32,0-16.28-4.54-16.28-12.94v-5.99c0-8.44,6.95-13.08,16.28-13.08h1.39Z"/></g></g></svg>